Patient4_TMGait_0pt2_02_left_01_EMG.mot
version=1
nRows=20
nColumns=33
inDegrees=no
endheader
time	1LAddLong	2LGlutMax	3LGlutMed	4LIliopsoas	5LSemiMemb	6LBicFemLong	7LRecFem	8LVastMed	9LVastLat	10LGasMed	11LTibAnt	12lTibPost	13LPeroneusLong	14LSol	15LExtDigLong	16LFlexDigLong	17RAddLong	18RGlutMax	19RGlutMed	20RIliopsoas	21RSemiMemb	22RBicFemLong	23RRecFem	24RVastMed	25RVastLat	26RGasMed	27RTibAnt	28RTibPost	29RPeroneusLong	30RSol	31RExtDigLong	32RFlexDigLong
4.288	0.002289	-0.027008	0.08728	0.018616	0.015411	-0.00824	-0.002747	0.01358	-0.01297	-0.015564	0.062408	0.006104	0	0.001068	0.1593	0.014191	-0.12726	-0.002136	0.98709	0.14801	0.13092	0.18478	-0.10529	0.49667	0.15259	-0.01236	0.016632	-0.020142	-0.28397	0.14297	-0.002594	-0.002441
4.289	0.003357	-0.005646	0.04715	0.001984	0.013733	0.006714	0.000916	0.00946	-0.025024	-0.01358	0.057831	0.003967	0.010376	-0.005188	0.28076	-0.003357	-0.12497	-0.074158	0.29511	-0.082855	0.20569	0.30853	-0.12924	1.1609	0.17288	-0.022125	-0.018158	-0.023193	-0.55191	0.24628	-0.003357	-0.003815
4.29	0.006104	0.011749	0.0354	-0.022888	0.012665	0.039825	0.012665	0.006561	-0.025024	-0.015564	0.068054	0.002594	0.029297	0.018616	-0.080719	-0.016022	-0.052338	0.029602	-0.38223	-0.16647	0.121	0.30319	-0.12421	0.95017	0.099335	-0.01709	-0.10284	-0.02655	0.048828	0.30884	0.001373	-0.008698
4.291	0.001678	0.006104	0.042419	-0.041504	0.013275	0.031891	0.006714	0.012054	-0.019989	-0.015411	0.15396	0.002289	-0.024261	0.011749	-0.17685	0.003815	-0.006714	-0.10986	-0.79666	-0.1915	0.11429	0.25925	0.02655	0.28931	0.013885	-0.006866	-0.21668	-0.027771	0.17227	0.2153	-0.001831	-0.000763
4.292	-0.002289	-0.009003	0.087585	-0.026245	0.010376	0.037537	-0.000763	0.008392	-0.016937	-0.036163	0.22186	0.003357	0.00824	0.027008	0.15442	0.001526	-0.010834	-0.12665	-0.99335	0.10696	-0.016785	0.17364	0.081635	-0.25955	0.027161	-0.000916	-0.20905	-0.032043	0.83527	0.14404	0.005493	0.000763
4.293	-0.001373	0.061493	-0.008392	-0.017395	0.004578	0.037384	-0.002594	0.017395	-0.016937	-0.054779	-0.00946	0.010376	0.083923	0.016327	0.067139	0.007629	-0.067444	-0.13611	-0.088043	0.17639	0.025177	0.12116	0.081177	-0.50064	0.09491	-0.01297	-0.083466	-0.03067	1.5547	0.17548	-0.00061	-0.009766
4.294	-0.000153	0.021973	0.016632	-0.019531	0.005646	0.04303	-0.007324	0.015106	-0.022125	-0.015869	-0.10269	0.001526	-0.008545	0.003815	0.11444	-0.000305	-0.075531	-0.28198	0.42755	0.28824	0.029602	0.048523	0.3305	-0.33203	-0.085449	-0.019989	0.047607	-0.024872	1.1952	0.16022	-0.005341	-0.005646
4.295	0.000763	0.015564	0.081329	-0.028381	0.009308	0.041809	-0.009308	0.010834	-0.021362	0.002136	0.04364	0.00351	-0.028992	-0.029449	0.13138	0.017242	-0.04303	-0.27771	0.32654	0.18127	0.007019	-0.057678	0.51163	-0.13763	-0.3981	-0.012512	0.075989	-0.022125	0.7869	0.057678	-0.006256	-0.013733
4.296	0.003662	-0.003357	0.11734	-0.027161	0.008087	0.036926	-0.002747	0.009918	-0.005798	0.005798	-0.063019	-0.003357	-0.008698	-0.021515	0.005035	-0.003052	-0.027771	-0.26093	-0.000153	0.066833	0.009308	-0.17319	0.4773	-0.077667	-0.1709	0.004272	0.053864	-0.02243	0.3508	-0.09964	-0.001678	-0.011139
4.297	0.00351	-0.015411	0.12024	-0.027466	0.005493	0.007782	0.003815	0.00885	-0.01236	0.004425	-0.045319	0.007324	-0.015869	-0.023956	-0.13229	0.00351	-0.005188	-0.29404	-0.027161	0.006866	-0.002747	-0.18982	0.26459	-0.20386	-0.074768	-0.006409	0.067139	-0.018616	-0.26154	-0.13382	-0.002289	-0.01358
4.298	0.005951	-0.019684	0.07843	-0.008087	0.014191	0.019684	0.013275	0.005341	-0.011444	0.010986	-0.069885	0.005188	-0.001068	-0.026093	-0.10513	-0.000458	0.000305	-0.31403	-0.48019	-0.015411	0.007172	-0.10391	0.42114	-0.14313	-0.049286	-0.012054	0.10895	-0.014038	-0.82199	-0.13443	0.000763	-0.007324
4.299	0.007324	0.00351	0.022888	0.00824	0.009003	0.007477	0.000305	0.011292	-0.020447	0.001984	-0.15656	0.003662	0.027771	-0.054321	-0.075836	-0.000153	-0.011749	-0.21027	0.13336	-0.103	0.029297	-0.063629	0.47546	-0.34042	-0.036011	-0.001984	0.12329	-0.014648	-0.73502	-0.1062	0	-0.00946
4.3	0.006561	-0.005341	0.061493	0.007172	0.006409	0.017548	-0.014496	0.013733	-0.000916	-0.03479	0.033722	0.005493	0.053253	-0.034027	-0.071716	0.001831	-0.028687	-0.20584	0.53619	-0.040283	-0.019073	-0.037231	0.42816	-0.092621	0.001678	0.001678	-0.001373	-0.013885	-0.64545	0.046692	0	-0.002594
4.301	0.007477	-0.032501	0.053558	0.028839	0.013428	0.007629	0.00946	0.005341	0.000458	-0.040588	0.023804	0	0.042114	0.011444	0.034943	0.011444	-0.000458	-0.16357	-0.1889	0.063934	-0.23697	-0.009003	0.31921	0.20737	0.06485	0.005646	-0.022278	-0.011292	-0.98541	0.18646	-0.001831	-0.010071
4.302	0.006714	0.008087	0.048676	0.025024	-0.001831	-0.007782	0.003204	0.009613	-0.002747	-0.032349	-0.010529	-0.014648	0.028381	0.036163	0.080414	-0.001831	0.049896	-0.1329	-0.14908	0.063477	-0.32761	-0.024414	0.2504	0.21622	0.12192	0.000153	0.066528	-0.010223	-1.4478	0.15457	-0.006409	-0.012207
4.303	0.007782	0.003204	0.06897	0.019379	0.007629	0.002594	-0.013123	0.010681	-0.003357	-0.021057	-0.036163	0.02243	0.016632	0.037689	0.020447	-0.012054	0.10529	-0.045624	0.28656	0.032654	-0.1152	-0.028992	0.1738	-0.054779	0.024872	-0.002136	-0.038452	-0.011749	0.084229	0.086517	0.002747	-0.009918
4.304	0.008545	0.016479	0.075531	0.002289	0.004883	-0.019531	-0.006714	0.005646	-0.001221	-0.01297	0.039368	-0.001526	0.011139	0.005188	-0.067291	-0.001526	0.11643	0.034485	0.26032	-0.071259	0.45029	-0.016479	0.028229	0.013428	-0.11948	0.00885	-0.063477	-0.016937	0.62164	0.044556	-0.003052	-0.010071
4.305	0.00351	-0.008087	0.042419	0.006714	0.006256	-0.02182	0.003052	0.014496	-0.002441	-0.007172	0.015411	-0.004578	-0.000305	-0.019531	-0.16953	0.001221	0.012512	0.019073	-0.02182	-0.03952	0.17716	-0.016785	-0.061798	0.2298	-0.17212	0.008087	-0.10498	-0.023956	1.5575	-0.1799	-0.00412	-0.00946
4.306	-0.001984	-0.023346	-0.062714	-0.010529	0.012207	-0.022583	-0.009155	0.008087	-0.008392	-0.011139	-0.031281	0.006714	0.009918	-0.076904	-0.10376	0.002136	-0.038147	-0.01709	-0.3598	0.11017	-0.13809	-0.022125	-0.39383	-0.056763	-0.22568	-0.016479	-0.044861	-0.027161	1.0794	-0.23453	-0.002441	0.001373
4.307	0.001831	-0.041199	-0.11871	-0.04364	0.010223	-0.027771	-0.00824	0.013275	-0.00824	-0.016327	-0.016022	0.005341	0.032349	-0.053253	0.26413	0.015411	-0.020905	0.053711	-0.47058	0.057526	-0.15991	0.062714	-0.75699	-0.20264	-0.15991	-0.02243	-0.031586	-0.026398	-0.13382	-0.14496	-0.001526	0.003204
